<svg xmlns="http://www.w3.org/2000/svg" width="1500" height="950" viewBox="0 0 1500 950" role="img" aria-labelledby="title desc">
  <title id="title">Sable Quick Settings and Notification Shade Titan 2 visual target</title>
  <desc id="desc">Keyboard-first visual target for Quick Settings and Notification Shade on Titan 2 with square display and physical keyboard.</desc>
  <defs>
    <linearGradient id="bg" x1="0" y1="0" x2="1" y2="1">
      <stop offset="0" stop-color="#07121d"/>
      <stop offset="1" stop-color="#0c2537"/>
    </linearGradient>
    <linearGradient id="screen" x1="0" y1="0" x2="0" y2="1">
      <stop offset="0" stop-color="#101c29"/>
      <stop offset="1" stop-color="#05090f"/>
    </linearGradient>
    <style>
      .title { font: 800 40px system-ui, -apple-system, Segoe UI, sans-serif; fill: #f4f9ff; }
      .subtitle { font: 400 19px system-ui, -apple-system, Segoe UI, sans-serif; fill: #bfd0e2; }
      .section { font: 750 22px system-ui, -apple-system, Segoe UI, sans-serif; fill: #f4f9ff; }
      .label { font: 650 14px system-ui, -apple-system, Segoe UI, sans-serif; fill: #f2f8ff; }
      .small { font: 400 12px system-ui, -apple-system, Segoe UI, sans-serif; fill: #b9c9dc; }
      .tiny { font: 400 10.5px system-ui, -apple-system, Segoe UI, sans-serif; fill: #aab9cb; }
      .panel { fill: rgba(255,255,255,0.045); stroke: rgba(255,255,255,0.16); stroke-width: 1.4; }
      .phone { fill: #05070a; stroke: #242c35; stroke-width: 6; }
      .bezel { fill: #111820; stroke: #354553; stroke-width: 2; }
      .screen { fill: url(#screen); stroke: #2b4054; stroke-width: 1.5; }
      .keyboard { fill: #090d12; stroke: #25313e; stroke-width: 1.5; }
      .key { fill: #161e27; stroke: #354557; stroke-width: 0.8; }
      .row { fill: rgba(255,255,255,0.055); stroke: rgba(255,255,255,0.09); stroke-width: 1; }
      .tile { fill: #14283a; stroke: #2d4861; stroke-width: 1; }
      .tileOn { fill: #0c6fbf; stroke: #65bdff; stroke-width: 1.2; }
      .focus { fill: rgba(35,130,230,0.28); stroke: #5dbcff; stroke-width: 2.2; }
      .warn { fill: #ffd25a; }
      .green { fill: #25c46f; }
      .blue { fill: #1588ff; }
      .orange { fill: #f5a531; }
      .red { fill: #ff566d; }
      .purple { fill: #806bff; }
      .muted { fill: #69798b; }
    </style>
  </defs>

  <rect width="1500" height="950" fill="url(#bg)"/>
  <text x="36" y="56" class="title">Sable Quick Settings / Notification Shade — Titan 2</text>
  <text x="38" y="88" class="subtitle">Android shade mental model · compact controls · notification privacy · Hub handoff · keyboard-first pull-down behavior</text>

  <g transform="translate(34 122)">
    <rect class="panel" x="0" y="0" width="455" height="760" rx="18"/>
    <text x="20" y="34" class="section">1. Compact shade</text>
    <g transform="translate(92 58)">
      <rect class="phone" x="0" y="0" width="270" height="660" rx="28"/>
      <rect class="bezel" x="15" y="15" width="240" height="630" rx="18"/>
      <rect class="screen" x="27" y="28" width="216" height="216" rx="9"/>
      <rect class="keyboard" x="27" y="258" width="216" height="352" rx="12"/>
      <text x="41" y="53" class="tiny">10:46 · Sat Sep 26</text>
      <text x="180" y="53" class="tiny">5G 99%</text>
      <rect class="row" x="39" y="65" width="192" height="34" rx="10"/>
      <text x="51" y="87" class="small">Sable Quick Settings</text>
      <g transform="translate(39 109)">
        <rect class="focus" x="-4" y="-4" width="45" height="34" rx="9"/>
        <rect class="tileOn" x="0" y="0" width="37" height="26" rx="8"/><text x="9" y="17" class="tiny">Wi‑Fi</text>
        <rect class="tile" x="48" y="0" width="37" height="26" rx="8"/><text x="56" y="17" class="tiny">BT</text>
        <rect class="tileOn" x="96" y="0" width="37" height="26" rx="8"/><text x="104" y="17" class="tiny">Dark</text>
        <rect class="tile" x="144" y="0" width="37" height="26" rx="8"/><text x="150" y="17" class="tiny">DND</text>
      </g>
      <g transform="translate(39 145)">
        <rect class="row" x="0" y="0" width="192" height="28" rx="7"/>
        <circle class="blue" cx="13" cy="14" r="9"/><text x="29" y="12" class="tiny">Hub summary</text><text x="29" y="23" class="tiny">3 priority items · Enter opens Hub</text>
        <rect class="focus" x="-3" y="35" width="198" height="33" rx="8"/>
        <circle class="green" cx="13" cy="52" r="9"/><text x="29" y="49" class="tiny">Messages</text><text x="29" y="61" class="tiny">2 new · Space safe peek</text>
        <rect class="row" x="0" y="75" width="192" height="28" rx="7"/>
        <circle class="red" cx="13" cy="89" r="9"/><text x="29" y="87" class="tiny">Mail</text><text x="29" y="98" class="tiny">1 new · body redacted if private</text>
      </g>
      <text x="40" y="235" class="tiny">Fn+Down expand · ↑↓ focus · ←→ tiles · Back close</text>
      <g transform="translate(43 278)">
        <rect class="key" x="0" y="0" width="24" height="17" rx="4"/><text x="7" y="12" class="tiny">Fn</text>
        <rect class="key" x="30" y="0" width="24" height="17" rx="4"/><text x="35" y="12" class="tiny">↓</text>
        <rect class="key" x="60" y="0" width="24" height="17" rx="4"/><text x="66" y="12" class="tiny">↵</text>
        <rect class="key" x="90" y="0" width="24" height="17" rx="4"/><text x="96" y="12" class="tiny">Sp</text>
        <rect class="key" x="120" y="0" width="24" height="17" rx="4"/><text x="126" y="12" class="tiny">Bk</text>
      </g>
      <g transform="translate(43 320)">
        <rect class="key" x="0" y="0" width="20" height="16" rx="4"/><text x="6" y="11" class="tiny">Q</text><rect class="key" x="24" y="0" width="20" height="16" rx="4"/><text x="30" y="11" class="tiny">W</text><rect class="key" x="48" y="0" width="20" height="16" rx="4"/><text x="54" y="11" class="tiny">E</text><rect class="key" x="72" y="0" width="20" height="16" rx="4"/><text x="78" y="11" class="tiny">R</text><rect class="key" x="96" y="0" width="20" height="16" rx="4"/><text x="102" y="11" class="tiny">T</text><rect class="key" x="120" y="0" width="20" height="16" rx="4"/><text x="126" y="11" class="tiny">Y</text><rect class="key" x="144" y="0" width="20" height="16" rx="4"/><text x="150" y="11" class="tiny">U</text>
      </g>
    </g>
    <text x="20" y="736" class="small">First pull-down keeps notifications visible and puts high-value controls within one keyboard action.</text>
  </g>

  <g transform="translate(522 122)">
    <rect class="panel" x="0" y="0" width="455" height="760" rx="18"/>
    <text x="20" y="34" class="section">2. Expanded controls</text>
    <g transform="translate(92 58)">
      <rect class="phone" x="0" y="0" width="270" height="660" rx="28"/>
      <rect class="bezel" x="15" y="15" width="240" height="630" rx="18"/>
      <rect class="screen" x="27" y="28" width="216" height="216" rx="9"/>
      <rect class="keyboard" x="27" y="258" width="216" height="352" rx="12"/>
      <text x="41" y="53" class="tiny">10:46 · Expanded QS</text>
      <text x="180" y="53" class="tiny">5G 99%</text>
      <g transform="translate(39 67)">
        <rect class="focus" x="-4" y="-4" width="58" height="45" rx="10"/>
        <rect class="tileOn" x="0" y="0" width="50" height="37" rx="10"/><text x="12" y="22" class="tiny">Wi‑Fi</text>
        <rect class="tile" x="70" y="0" width="50" height="37" rx="10"/><text x="83" y="22" class="tiny">BT</text>
        <rect class="tileOn" x="140" y="0" width="50" height="37" rx="10"/><text x="150" y="22" class="tiny">Dark</text>
        <rect class="tile" x="0" y="49" width="50" height="37" rx="10"/><text x="7" y="71" class="tiny">Battery</text>
        <rect class="tile" x="70" y="49" width="50" height="37" rx="10"/><text x="78" y="71" class="tiny">DND</text>
        <rect class="tile" x="140" y="49" width="50" height="37" rx="10"/><text x="148" y="71" class="tiny">Light</text>
        <rect class="tile" x="0" y="98" width="50" height="37" rx="10"/><text x="7" y="120" class="tiny">Hotspot</text>
        <rect class="tile" x="70" y="98" width="50" height="37" rx="10"/><text x="77" y="120" class="tiny">Keys</text>
        <rect class="tile" x="140" y="98" width="50" height="37" rx="10"/><text x="145" y="120" class="tiny">SubScr</text>
      </g>
      <rect class="row" x="39" y="210" width="192" height="24" rx="8"/>
      <text x="51" y="226" class="tiny">Brightness · keyboard backlight profile-gated</text>
      <text x="42" y="250" class="tiny">AOD tile hidden on Titan 2 unless validated</text>
      <g transform="translate(43 278)">
        <rect class="key" x="0" y="0" width="24" height="17" rx="4"/><text x="7" y="12" class="tiny">Fn</text>
        <rect class="key" x="30" y="0" width="24" height="17" rx="4"/><text x="36" y="12" class="tiny">↑</text>
        <rect class="key" x="60" y="0" width="24" height="17" rx="4"/><text x="66" y="12" class="tiny">←</text>
        <rect class="key" x="90" y="0" width="24" height="17" rx="4"/><text x="96" y="12" class="tiny">→</text>
        <rect class="key" x="120" y="0" width="24" height="17" rx="4"/><text x="126" y="12" class="tiny">↵</text>
      </g>
      <g transform="translate(43 320)">
        <rect class="key" x="0" y="0" width="20" height="16" rx="4"/><text x="6" y="11" class="tiny">A</text><rect class="key" x="24" y="0" width="20" height="16" rx="4"/><text x="30" y="11" class="tiny">S</text><rect class="key" x="48" y="0" width="20" height="16" rx="4"/><text x="54" y="11" class="tiny">D</text><rect class="key" x="72" y="0" width="20" height="16" rx="4"/><text x="78" y="11" class="tiny">F</text><rect class="key" x="96" y="0" width="20" height="16" rx="4"/><text x="102" y="11" class="tiny">G</text><rect class="key" x="120" y="0" width="20" height="16" rx="4"/><text x="126" y="11" class="tiny">H</text><rect class="key" x="144" y="0" width="20" height="16" rx="4"/><text x="150" y="11" class="tiny">J</text>
      </g>
    </g>
    <text x="20" y="736" class="small">Expanded controls expose profile-gated hardware controls without pretending unsupported AOD/SubScreen paths exist.</text>
  </g>

  <g transform="translate(1010 122)">
    <rect class="panel" x="0" y="0" width="455" height="760" rx="18"/>
    <text x="20" y="34" class="section">3. Privacy + notification actions</text>
    <g transform="translate(92 58)">
      <rect class="phone" x="0" y="0" width="270" height="660" rx="28"/>
      <rect class="bezel" x="15" y="15" width="240" height="630" rx="18"/>
      <rect class="screen" x="27" y="28" width="216" height="216" rx="9"/>
      <rect class="keyboard" x="27" y="258" width="216" height="352" rx="12"/>
      <text x="41" y="53" class="tiny">10:46 · Private mode</text>
      <text x="178" y="53" class="tiny">Locked</text>
      <rect class="row" x="39" y="70" width="192" height="36" rx="9"/>
      <circle class="blue" cx="55" cy="88" r="10"/><text x="72" y="85" class="tiny">Hub summary</text><text x="72" y="98" class="tiny">3 priority items · counts only</text>
      <rect class="focus" x="36" y="117" width="198" height="42" rx="10"/>
      <circle class="green" cx="55" cy="138" r="10"/><text x="72" y="134" class="tiny">Messages</text><text x="72" y="147" class="tiny">2 new · content hidden</text>
      <rect class="row" x="39" y="170" width="192" height="28" rx="8"/>
      <text x="52" y="188" class="tiny">Actions: Open · Dismiss · Hub</text>
      <text x="41" y="229" class="tiny">Inline Reply only when provider-safe</text>
      <g transform="translate(43 278)">
        <rect class="key" x="0" y="0" width="24" height="17" rx="4"/><text x="6" y="12" class="tiny">Ent</text>
        <rect class="key" x="30" y="0" width="24" height="17" rx="4"/><text x="36" y="12" class="tiny">Sp</text>
        <rect class="key" x="60" y="0" width="24" height="17" rx="4"/><text x="66" y="12" class="tiny">M</text>
        <rect class="key" x="90" y="0" width="24" height="17" rx="4"/><text x="96" y="12" class="tiny">/</text>
        <rect class="key" x="120" y="0" width="24" height="17" rx="4"/><text x="126" y="12" class="tiny">Bk</text>
      </g>
      <g transform="translate(43 320)">
        <rect class="key" x="0" y="0" width="20" height="16" rx="4"/><text x="6" y="11" class="tiny">Z</text><rect class="key" x="24" y="0" width="20" height="16" rx="4"/><text x="30" y="11" class="tiny">X</text><rect class="key" x="48" y="0" width="20" height="16" rx="4"/><text x="54" y="11" class="tiny">C</text><rect class="key" x="72" y="0" width="20" height="16" rx="4"/><text x="78" y="11" class="tiny">V</text><rect class="key" x="96" y="0" width="20" height="16" rx="4"/><text x="102" y="11" class="tiny">B</text><rect class="key" x="120" y="0" width="20" height="16" rx="4"/><text x="126" y="11" class="tiny">N</text><rect class="key" x="144" y="0" width="20" height="16" rx="4"/><text x="150" y="11" class="tiny">M</text>
      </g>
    </g>
    <text x="20" y="736" class="small">Notification previews are privacy-aware. Hub handoff is available without making the shade a Hub replacement.</text>
  </g>

  <g transform="translate(34 898)">
    <text x="0" y="0" class="small">Validation: Titan 2 hardware template · compact shade · expanded QS · dark theme propagation · Hub handoff · profile-gated hardware tiles · no Start base bar in shade.</text>
  </g>
</svg>
